<?xml version="1.0" encoding="utf-8"?>
<!-- Generator: Adobe Illustrator 19.0.0, SVG Export Plug-In . SVG Version: 6.00 Build 0)  -->
<svg version="1.1" id="Layer_1" xmlns="http://www.w3.org/2000/svg" xmlns:xlink="http://www.w3.org/1999/xlink" x="0px" y="0px"
	 viewBox="0 0 30 30" style="enable-background:new 0 0 30 30;" xml:space="preserve">
<style type="text/css">
	.st0{fill:#F1C40F;}
	.st1{fill:#C0392B;}
	.st2{fill:none;stroke:#3498DB;stroke-width:0.25;stroke-miterlimit:10;}
	.st3{fill:#3498DB;}
	.st4{fill:#2ECC71;}
	.st5{fill:none;}
</style>
<g id="XMLID_1_">
	<path id="XMLID_44_" class="st0" d="M2.4,14.9c0.7,0.3,1,0.6,1,1.1c0,0.6-0.4,0.9-1.1,0.9c-0.5,0-1-0.2-1-0.2
		c-0.2-0.1-0.3,0-0.4,0.2c0,0.2,0,0.4,0.2,0.4c0,0,0.6,0.2,1.1,0.2c1.3,0,1.9-0.7,1.9-1.6c0-0.5-0.2-0.9-0.6-1.2
		C3.1,14.8,2.7,14.8,2.4,14.9C2.3,14.9,2.4,14.9,2.4,14.9z"/>
	<path id="XMLID_43_" class="st1" d="M1.7,13.2c0-0.4,0.3-0.8,1-0.8c0.5,0,0.8,0.1,0.8,0.1c0.2,0.1,0.3,0,0.4-0.2s0-0.3-0.2-0.4
		c0,0-0.4-0.1-0.9-0.1c-1.1,0-1.8,0.6-1.8,1.5c0,0.8,0.5,1.2,1.4,1.5c0.4,0,0.8-0.1,1.3-0.1c-0.2-0.2-0.5-0.3-0.8-0.4
		C2,14,1.7,13.8,1.7,13.2z"/>
	<g id="XMLID_39_">
		<line id="XMLID_42_" class="st2" x1="7.6" y1="13.1" x2="8.1" y2="12.4"/>
		<g id="XMLID_40_">
			<path id="XMLID_41_" class="st3" d="M8.7,11.3c-0.1,0.6-0.2,1.5-0.1,2.1L8,12.5l-1.1-0.2C7.5,12.1,8.2,11.7,8.7,11.3z"/>
		</g>
	</g>
	<path id="XMLID_38_" class="st3" d="M7.2,14.5l1.2-2c0.1-0.2,0-0.5-0.3-0.5C8,12,7.9,12,7.8,12.1l-0.7,1.1
		c-0.2,0.4-0.3,0.6-0.5,0.9h0c-0.1-0.3-0.3-0.6-0.5-0.9l-0.6-1.1C5.4,12,5.3,12,5.2,12h0c-0.3,0-0.4,0.3-0.3,0.5l1.2,2
		c0,0.1,0.1,0.1,0,0.2C6.4,14.7,6.8,14.6,7.2,14.5C7.1,14.5,7.1,14.5,7.2,14.5z"/>
	<path id="XMLID_37_" class="st4" d="M6.1,14.7c0,0.1,0,0.1,0,0.1L4.8,17c-0.1,0.2,0,0.5,0.3,0.5h0c0.1,0,0.2-0.1,0.3-0.2l0.6-1
		c0.3-0.5,0.4-0.8,0.6-1.1h0c0.2,0.3,0.4,0.6,0.6,1.1l0.6,1c0.1,0.1,0.2,0.2,0.3,0.2h0c0.3,0,0.4-0.3,0.3-0.5l-1.3-2.1
		c-0.1-0.1-0.1-0.2,0-0.3C6.8,14.6,6.4,14.7,6.1,14.7z"/>
</g>
<g id="XMLID_2_">
	<path id="XMLID_35_" class="st5" d="M15.1,16.1c0.1,0,0.2,0,0.3-0.1c0.1,0,0.2-0.1,0.3-0.2v-0.5c-0.4,0-0.8,0-1.2,0
		c0,0.3,0.1,0.4,0.1,0.6C14.7,16.1,14.9,16.1,15.1,16.1z"/>
	<path id="XMLID_34_" class="st5" d="M15.7,14.5c-0.1-0.1-0.2-0.1-0.3-0.1s-0.2,0-0.3,0c-0.2,0-0.4,0.1-0.5,0.2
		c-0.1,0.2-0.2,0.4-0.2,0.7c0,0,0,0,0,0.1c0.4,0,0.8,0,1.2,0V14.5z"/>
	<path id="XMLID_33_" class="st5" d="M18.9,15.4c-0.1,0-0.3,0-0.4,0l0.2,0.6L18.9,15.4z"/>
	<path id="XMLID_32_" class="st5" d="M13.2,15.2c-0.1,0-0.2,0-0.4,0c0,0,0,0,0,0C12.9,15.3,13.1,15.3,13.2,15.2L13.2,15.2z"/>
	<path id="XMLID_31_" class="st5" d="M12.2,15.5c-0.1,0.1-0.1,0.2-0.1,0.3c0,0.1,0,0.3,0.1,0.3c0.1,0.1,0.2,0.1,0.4,0.1
		c0.1,0,0.3,0,0.4-0.1s0.2-0.1,0.3-0.2v-0.6c-0.1,0-0.3,0-0.4,0c-0.1,0-0.3,0-0.3,0.1C12.3,15.4,12.2,15.4,12.2,15.5z"/>
	<path id="XMLID_30_" class="st5" d="M21.6,14.7c0-0.1-0.1-0.2-0.1-0.2c0-0.1-0.1-0.1-0.2-0.1c-0.1,0-0.2,0-0.3,0
		c-0.1,0-0.2,0-0.3,0.1s-0.2,0.1-0.2,0.1c-0.1,0.1-0.1,0.1-0.1,0.2c0,0.1-0.1,0.2-0.1,0.3h1.3C21.7,14.9,21.6,14.8,21.6,14.7z"/>
	<path id="XMLID_29_" class="st5" d="M24,14.8c0-0.1,0-0.2-0.1-0.2c0-0.1-0.1-0.1-0.1-0.1c-0.1,0-0.1,0-0.3,0c-0.1,0-0.2,0-0.3,0.1
		c-0.1,0.1-0.2,0.1-0.3,0.2v0.7c0.4,0,0.8,0,1.1,0v-0.2C24,15,24,14.9,24,14.8z"/>
	<path id="XMLID_28_" class="st1" d="M10.7,14.8c-0.1,0-0.2-0.1-0.3-0.1c-0.1,0-0.3-0.1-0.3-0.1c-0.1,0-0.3-0.1-0.3-0.2
		s-0.1-0.2-0.1-0.3c0-0.2,0.1-0.3,0.2-0.4c0.1-0.1,0.3-0.1,0.5-0.1c0.2,0,0.4,0,0.5,0.1c0.2,0.1,0.3,0.2,0.4,0.3h0v-0.5
		c-0.1-0.1-0.3-0.1-0.5-0.2c-0.2,0-0.3-0.1-0.5-0.1c-0.3,0-0.6,0.1-0.8,0.3c-0.2,0.2-0.3,0.4-0.3,0.7c0,0.1,0,0.2,0.1,0.3
		s0.1,0.2,0.2,0.3c0.1,0.1,0.2,0.1,0.2,0.2S9.8,15,9.9,15c0.1,0,0.2,0.1,0.3,0.1c0.1,0,0.2,0,0.3,0.1c0.1,0,0.1,0,0.2,0.1
		c0.2,0,0.4,0,0.7,0c0-0.1-0.1-0.1-0.1-0.2C11.1,14.9,10.9,14.8,10.7,14.8z"/>
	<path id="XMLID_27_" class="st0" d="M10.8,15.4c0.1,0.1,0.1,0.2,0.1,0.3c0,0.2-0.1,0.3-0.2,0.4c-0.1,0.1-0.3,0.2-0.6,0.2
		c-0.2,0-0.4,0-0.5-0.1c-0.2-0.1-0.4-0.2-0.5-0.3h0v0.6c0.1,0.1,0.3,0.1,0.5,0.2c0.2,0.1,0.4,0.1,0.6,0.1c0.2,0,0.4,0,0.5-0.1
		s0.3-0.1,0.4-0.2c0.1-0.1,0.2-0.2,0.2-0.3c0.1-0.1,0.1-0.3,0.1-0.4c0-0.1,0-0.3-0.1-0.4c-0.2,0-0.4,0-0.7,0
		C10.7,15.3,10.8,15.3,10.8,15.4z"/>
	<path id="XMLID_26_" class="st0" d="M13.2,15.9c-0.1,0.1-0.2,0.2-0.3,0.2s-0.2,0.1-0.4,0.1c-0.2,0-0.3,0-0.4-0.1
		c-0.1-0.1-0.1-0.2-0.1-0.3c0-0.1,0-0.2,0.1-0.3c0.1-0.1,0.2-0.1,0.3-0.2c0.1,0,0.2,0,0.3-0.1c-0.3,0-0.6,0-1,0c0,0-0.1,0.1-0.1,0.1
		c-0.1,0.1-0.1,0.3-0.1,0.4c0,0.1,0,0.2,0.1,0.3c0,0.1,0.1,0.2,0.2,0.3c0.1,0.1,0.2,0.1,0.2,0.2c0.1,0,0.2,0.1,0.3,0.1
		c0.1,0,0.2,0,0.3,0c0.1,0,0.1-0.1,0.2-0.1c0.1,0,0.1-0.1,0.2-0.1c0.1,0,0.1-0.1,0.1-0.1v0.3h0.4v-1.3c-0.1,0-0.3,0-0.4,0V15.9z"/>
	<path id="XMLID_25_" class="st1" d="M13.6,14.4c0-0.1-0.1-0.2-0.2-0.3c-0.1-0.1-0.2-0.1-0.3-0.1c-0.1,0-0.3,0-0.4,0
		c-0.1,0-0.3,0-0.4,0c-0.1,0-0.3,0.1-0.3,0.1v0.4h0c0.1-0.1,0.3-0.1,0.4-0.1c0.1,0,0.2,0,0.3,0c0.1,0,0.2,0,0.2,0
		c0.1,0,0.1,0,0.2,0.1c0.1,0,0.1,0.1,0.1,0.1c0,0.1,0,0.1,0,0.2v0.1c-0.2,0-0.4,0-0.6,0.1c-0.2,0-0.4,0.1-0.5,0.1
		c-0.1,0-0.2,0.1-0.2,0.2c0.3,0,0.6,0,1,0c0,0,0,0,0,0c0.2,0,0.3,0,0.4,0v0.1c0.1,0,0.3,0,0.4,0v-0.5C13.6,14.7,13.6,14.6,13.6,14.4
		z"/>
	<path id="XMLID_24_" class="st0" d="M15.7,15.9c-0.1,0.1-0.2,0.1-0.3,0.2c-0.1,0-0.2,0.1-0.3,0.1c-0.2,0-0.4-0.1-0.5-0.2
		c-0.1-0.1-0.1-0.3-0.1-0.6c-0.1,0-0.3,0-0.4,0c0,0.4,0.1,0.7,0.3,0.9c0.2,0.2,0.4,0.3,0.7,0.3c0.2,0,0.3,0,0.4-0.1
		c0.1,0,0.2-0.1,0.3-0.2v0.2c0,0.1,0,0.2,0,0.3s-0.1,0.2-0.1,0.2c-0.1,0.1-0.1,0.1-0.2,0.1c-0.1,0-0.2,0.1-0.3,0.1
		c-0.1,0-0.1,0-0.2,0c-0.1,0-0.1,0-0.2,0c-0.1,0-0.1,0-0.2-0.1c-0.1,0-0.1,0-0.1,0h0v0.4c0.1,0,0.2,0.1,0.4,0.1s0.3,0,0.4,0
		c0.4,0,0.7-0.1,0.9-0.3c0.2-0.2,0.3-0.5,0.3-0.9v-0.9c-0.1,0-0.3,0-0.4,0V15.9z"/>
	<path id="XMLID_23_" class="st1" d="M15.8,14l0,0.1c-0.1-0.1-0.2-0.1-0.3-0.1s-0.2,0-0.3,0c-0.1,0-0.3,0-0.4,0.1
		c-0.1,0.1-0.2,0.1-0.3,0.2c-0.1,0.1-0.2,0.2-0.2,0.4c-0.1,0.2-0.1,0.3-0.1,0.6c0,0,0,0,0,0c0.1,0,0.3,0,0.4,0c0,0,0,0,0-0.1
		c0-0.3,0.1-0.5,0.2-0.7c0.1-0.2,0.3-0.2,0.5-0.2c0.1,0,0.2,0,0.3,0s0.2,0.1,0.3,0.1v0.8c0.1,0,0.3,0,0.4,0V14H15.8z"/>
	<rect id="XMLID_22_" x="16.7" y="13.2" class="st1" width="0.5" height="0.4"/>
	<path id="XMLID_21_" class="st0" d="M16.8,16.6h0.4v-1.2c-0.1,0-0.3,0-0.4,0V16.6z"/>
	<path id="XMLID_20_" class="st1" d="M16.8,14v1.3c0.1,0,0.3,0,0.4,0V14H16.8z"/>
	<path id="XMLID_19_" class="st0" d="M18.7,16l-0.2-0.6c-0.1,0-0.3,0-0.4,0l0.4,1.2h0.4l0.4-1.2c-0.1,0-0.3,0-0.4,0L18.7,16z"/>
	<path id="XMLID_18_" class="st1" d="M19.3,14l-0.5,1.3c0.1,0,0.3,0,0.4,0l0.5-1.3H19.3z"/>
	<path id="XMLID_17_" class="st1" d="M18,14h-0.5l0.5,1.3c0.1,0,0.3,0,0.4,0L18,14z"/>
	<path id="XMLID_14_" class="st3" d="M22.1,15.3v-0.2c0-0.2,0-0.4-0.1-0.5c0-0.1-0.1-0.3-0.2-0.4s-0.2-0.2-0.3-0.2
		c-0.1,0-0.3-0.1-0.4-0.1c-0.3,0-0.6,0.1-0.8,0.4s-0.3,0.6-0.3,1c0,0,0,0,0,0.1c0.1,0,0.3,0,0.4,0c0,0,0,0,0,0H22.1z M20.4,14.7
		c0-0.1,0.1-0.2,0.1-0.2c0.1-0.1,0.1-0.1,0.2-0.1s0.2-0.1,0.3-0.1c0.1,0,0.2,0,0.3,0c0.1,0,0.1,0.1,0.2,0.1c0,0.1,0.1,0.1,0.1,0.2
		s0,0.2,0,0.3h-1.3C20.3,14.9,20.4,14.8,20.4,14.7z"/>
	<path id="XMLID_13_" class="st4" d="M20.2,16.3c0.2,0.2,0.5,0.3,0.9,0.3c0.1,0,0.2,0,0.3,0s0.1,0,0.2-0.1c0.1,0,0.1,0,0.2-0.1
		c0.1,0,0.1-0.1,0.2-0.1v-0.5h0c0,0-0.1,0.1-0.1,0.1c-0.1,0-0.1,0.1-0.2,0.1c-0.1,0-0.2,0.1-0.2,0.1s-0.2,0-0.3,0
		c-0.3,0-0.5-0.1-0.6-0.2c-0.1-0.1-0.2-0.4-0.2-0.6c-0.1,0-0.3,0-0.4,0C19.9,15.8,20,16.1,20.2,16.3z"/>
	<path id="XMLID_12_" class="st4" d="M22.5,16.6h0.4v-1.2c-0.1,0-0.3,0-0.4,0V16.6z"/>
	<path id="XMLID_11_" class="st4" d="M24,16.6h0.4v-1.2c-0.1,0-0.3,0-0.4,0V16.6z"/>
	<path id="XMLID_10_" class="st3" d="M24.3,14.2c-0.1-0.2-0.3-0.2-0.6-0.2c-0.1,0-0.3,0-0.4,0.1s-0.2,0.1-0.4,0.3V14h-0.4v1.3
		c0.1,0,0.3,0,0.4,0v-0.7c0.1-0.1,0.2-0.2,0.3-0.2c0.1-0.1,0.2-0.1,0.3-0.1c0.1,0,0.2,0,0.3,0c0.1,0,0.1,0.1,0.1,0.1
		c0,0.1,0.1,0.1,0.1,0.2c0,0.1,0,0.2,0,0.3v0.2c0.1,0,0.3,0,0.4,0v-0.4C24.5,14.6,24.4,14.4,24.3,14.2z"/>
	<path id="XMLID_9_" class="st3" d="M26.3,14.4V14h-0.8v-0.7h-0.4V14h-0.3v0.4h0.3v0.9c0.1,0,0.3,0,0.4,0v-0.9H26.3z"/>
	<path id="XMLID_8_" class="st4" d="M25.1,15.8c0,0.3,0.1,0.5,0.2,0.6c0.1,0.1,0.3,0.2,0.5,0.2c0.1,0,0.1,0,0.2,0
		c0.1,0,0.2,0,0.2-0.1v-0.4h0c0,0-0.1,0-0.1,0.1c-0.1,0-0.1,0-0.2,0c-0.1,0-0.2,0-0.2,0c-0.1,0-0.1-0.1-0.1-0.1c0-0.1,0-0.1-0.1-0.2
		c0-0.1,0-0.2,0-0.3v-0.3c-0.1,0-0.3,0-0.4,0V15.8z"/>
	<path id="XMLID_7_" class="st4" d="M26.6,16.6H27v-1.2c-0.1,0-0.3,0-0.4,0V16.6z"/>
	<rect id="XMLID_6_" x="26.6" y="13.2" class="st3" width="0.5" height="0.4"/>
	<path id="XMLID_5_" class="st3" d="M26.6,14v1.3c0.1,0,0.3,0,0.4,0V14H26.6z"/>
	<path id="XMLID_4_" class="st4" d="M28.2,15.3L28.2,15.3l-0.9,1.3h0.5l0.6-0.9l0.6,0.9h0.5l-0.9-1.3l0,0
		C28.6,15.3,28.4,15.3,28.2,15.3z"/>
	<path id="XMLID_3_" class="st3" d="M29.6,14h-0.5L28.5,15L27.9,14h-0.5l0.8,1.2c0.2,0,0.4,0,0.5,0L29.6,14z"/>
</g>
</svg>
